<svg version="1.1" id="Layer_1" xmlns="http://www.w3.org/2000/svg" xmlns:xlink="http://www.w3.org/1999/xlink" x="0px" y="0px"
	 width="100%" viewBox="0 0 512 512" enable-background="new 0 0 512 512" xml:space="preserve">
<path fill="#4A7AFF" opacity="1.000000" stroke="none" 
	d="
M225.000000,1.000002 
	C246.020889,1.000000 267.041779,1.000000 288.292145,1.390610 
	C293.882690,2.850678 299.224976,4.027277 304.608124,4.970870 
	C326.810699,8.862691 347.985474,15.936884 368.246124,25.713661 
	C388.618652,35.544418 407.395752,47.785820 424.415253,62.799152 
	C439.940155,76.494080 453.989258,91.424622 466.074646,108.255592 
	C479.160980,126.480568 489.771851,146.054520 497.359711,167.097443 
	C501.679657,179.077576 504.395142,191.636276 507.557312,203.770172 
	C474.284302,170.655304 441.295441,137.696365 408.262512,104.781700 
	C406.785126,103.309631 404.906738,102.239967 402.956543,100.758102 
	C375.793213,108.105171 348.888489,115.677010 321.615784,123.179909 
	C319.592590,122.368683 317.914764,121.672737 316.285675,120.877037 
	C297.569336,111.735397 277.991089,106.340416 256.516113,107.110870 
	C235.611908,107.094566 216.311325,111.887901 198.000778,120.932594 
	C195.842804,121.998550 193.353867,122.394440 190.710510,122.882141 
	C164.054108,115.146133 137.705521,107.628914 110.464371,99.857040 
	C114.699654,115.984314 118.562126,130.911011 122.547630,145.804764 
	C126.316040,159.887253 130.213699,173.935165 134.047668,188.422943 
	C133.529526,191.427139 133.270203,194.088043 132.467590,196.573517 
	C125.146896,219.243729 123.493172,242.183136 128.939896,265.494537 
	C133.225815,283.837830 143.328674,298.573090 157.081711,311.350159 
	C148.649750,342.478149 140.285492,373.217926 132.012054,403.982086 
	C126.109444,425.930603 120.328880,447.911987 114.165375,469.924591 
	C94.107361,456.835480 76.954613,440.851624 61.442825,422.989166 
	C49.189655,408.879181 38.716461,393.528748 30.100569,377.031738 
	C15.931700,349.902344 6.128495,321.287476 2.905046,290.647064 
	C2.840970,290.037994 1.659928,289.546387 0.999999,289.000000 
	C1.000000,267.645782 1.000000,246.291550 1.384037,224.716034 
	C2.176276,223.652115 2.806383,222.847305 2.957468,221.960846 
	C4.133108,215.062988 4.805162,208.052795 6.400821,201.257660 
	C12.741599,174.255386 22.518787,148.610580 36.993526,124.816849 
	C51.456055,101.043190 69.266960,80.206108 90.359901,62.073841 
	C109.642426,45.497879 130.804962,32.037987 154.159119,21.930077 
	C176.195984,12.392295 198.949921,5.637769 222.857849,2.920537 
	C223.634628,2.832252 224.288727,1.664534 225.000000,1.000002 
z"/>
<path fill="#0053BF" opacity="1.000000" stroke="none" 
	d="
M403.215149,100.982880 
	C404.906738,102.239967 406.785126,103.309631 408.262512,104.781700 
	C441.295441,137.696365 474.284302,170.655304 507.655762,204.174637 
	C509.034241,210.516953 509.960815,216.305893 511.098785,222.052963 
	C511.373383,223.439743 512.347534,224.688034 513.000000,226.000000 
	C513.000000,246.687561 513.000000,267.375122 512.586731,288.417603 
	C511.846588,289.119568 511.306396,289.422333 511.223816,289.820129 
	C508.480469,303.038361 506.262512,316.387146 502.963898,329.463684 
	C497.782288,350.004730 489.430054,369.427582 478.054688,387.230621 
	C469.545105,400.548523 459.818878,413.161804 449.865692,425.467102 
	C435.716034,442.960571 419.005920,457.790314 399.924896,469.498352 
	C391.924103,439.725769 383.962250,410.328735 375.969879,380.940063 
	C369.628265,357.621460 363.249298,334.313019 357.057495,310.707184 
	C362.756622,304.263947 369.175842,298.696991 373.654755,291.859100 
	C390.232635,266.549805 390.985809,238.655182 385.310638,210.046677 
	C383.840271,202.634506 381.737061,195.347885 380.172791,187.725006 
	C388.019073,158.625229 395.617096,129.804047 403.215149,100.982880 
z"/>
<path fill="#000000" opacity="1.000000" stroke="none" 
	d="
M399.950684,469.877563 
	C419.005920,457.790314 435.716034,442.960571 449.865692,425.467102 
	C459.818878,413.161804 469.545105,400.548523 478.054688,387.230621 
	C489.430054,369.427582 497.782288,350.004730 502.963898,329.463684 
	C506.262512,316.387146 508.480469,303.038361 511.223816,289.820129 
	C511.306396,289.422333 511.846588,289.119568 512.586731,288.886230 
	C513.000000,363.593719 513.000000,438.187408 513.000000,513.000000 
	C438.645905,513.000000 364.291626,513.000000 289.156982,512.642700 
	C293.983887,511.193481 299.622192,510.238525 305.190552,508.975189 
	C312.150391,507.396118 319.052734,505.563385 326.374451,503.918030 
	C334.628510,501.339447 342.560577,498.878174 350.332794,495.987030 
	C367.981720,489.421814 384.583679,480.808380 399.950684,469.877563 
z"/>
<path fill="#000000" opacity="1.000000" stroke="none" 
	d="
M513.000000,225.531342 
	C512.347534,224.688034 511.373383,223.439743 511.098785,222.052963 
	C509.960815,216.305893 509.034241,210.516953 507.931610,204.338928 
	C504.395142,191.636276 501.679657,179.077576 497.359711,167.097443 
	C489.771851,146.054520 479.160980,126.480568 466.074646,108.255592 
	C453.989258,91.424622 439.940155,76.494080 424.415253,62.799152 
	C407.395752,47.785820 388.618652,35.544418 368.246124,25.713661 
	C347.985474,15.936884 326.810699,8.862691 304.608124,4.970870 
	C299.224976,4.027277 293.882690,2.850678 288.760803,1.390610 
	C363.593842,1.000000 438.187714,1.000000 513.000000,1.000000 
	C513.000000,75.687416 513.000000,150.375046 513.000000,225.531342 
z"/>
<path fill="#000000" opacity="1.000000" stroke="none" 
	d="
M0.999999,289.468658 
	C1.659928,289.546387 2.840970,290.037994 2.905046,290.647064 
	C6.128495,321.287476 15.931700,349.902344 30.100569,377.031738 
	C38.716461,393.528748 49.189655,408.879181 61.442825,422.989166 
	C76.954613,440.851624 94.107361,456.835480 114.412704,470.219543 
	C129.163437,478.268677 143.017700,486.749359 157.625015,493.631744 
	C167.516968,498.292480 178.467743,500.705994 189.133667,504.474487 
	C200.908188,506.896210 212.497375,508.949982 224.066132,511.112976 
	C224.480530,511.190460 224.693268,512.346558 225.000000,513.000000 
	C150.406296,513.000000 75.812599,513.000000 1.000000,513.000000 
	C1.000000,438.645905 1.000000,364.291626 0.999999,289.468658 
z"/>
<path fill="#000000" opacity="1.000000" stroke="none" 
	d="
M224.531342,1.000002 
	C224.288727,1.664534 223.634628,2.832252 222.857849,2.920537 
	C198.949921,5.637769 176.195984,12.392295 154.159119,21.930077 
	C130.804962,32.037987 109.642426,45.497879 90.359901,62.073841 
	C69.266960,80.206108 51.456055,101.043190 36.993526,124.816849 
	C22.518787,148.610580 12.741599,174.255386 6.400821,201.257660 
	C4.805162,208.052795 4.133108,215.062988 2.957468,221.960846 
	C2.806383,222.847305 2.176276,223.652115 1.384037,224.247375 
	C1.000000,149.739456 1.000000,75.478920 1.000000,1.000000 
	C75.354088,1.000000 149.708389,1.000000 224.531342,1.000002 
z"/>
<path fill="#E9EDF5" opacity="1.000000" stroke="none" 
	d="
M325.979889,503.840179 
	C319.052734,505.563385 312.150391,507.396118 305.190552,508.975189 
	C299.622192,510.238525 293.983887,511.193481 288.688293,512.642700 
	C278.645782,513.000000 268.291534,513.000000 257.465698,512.531372 
	C256.975616,460.396545 256.957123,408.730377 256.957947,357.043945 
	C256.977234,357.023682 257.014648,356.984711 257.465790,356.989624 
	C262.672028,357.524506 267.545441,357.559631 272.163269,358.663727 
	C305.324554,366.592194 325.433594,393.910400 325.913147,427.012115 
	C326.284088,452.616425 325.982513,478.230469 325.979889,503.840179 
z"/>
<path fill="#FFFFFF" opacity="1.000000" stroke="none" 
	d="
M256.938629,357.064240 
	C256.957123,408.730377 256.975616,460.396545 256.997070,512.531372 
	C246.645767,513.000000 236.291550,513.000000 225.468658,513.000000 
	C224.693268,512.346558 224.480530,511.190460 224.066132,511.112976 
	C212.497375,508.949982 200.908188,506.896210 189.145813,503.998169 
	C188.978821,475.691376 188.953491,448.210724 189.046051,420.730499 
	C189.056549,417.610291 189.444885,414.427399 190.139053,411.383240 
	C197.841995,377.602661 225.940033,357.358887 256.938629,357.064240 
z"/>
<path fill="#E9EDF5" opacity="1.000000" stroke="none" 
	d="
M379.924561,188.003601 
	C381.737061,195.347885 383.840271,202.634506 385.310638,210.046677 
	C390.985809,238.655182 390.232635,266.549805 373.654755,291.859100 
	C369.175842,298.696991 362.756622,304.263947 356.770020,310.871796 
	C348.041412,316.220093 340.168823,322.027496 331.423523,325.825165 
	C307.766083,336.098389 282.677856,339.451630 256.996216,338.996094 
	C256.976929,338.976685 256.938812,338.937378 256.954895,338.472931 
	C256.967102,322.366882 256.963196,306.725281 257.407654,291.021790 
	C260.562164,290.916412 263.268372,290.872894 266.245300,290.868896 
	C266.634369,290.599274 266.752686,290.290192 266.926941,289.516602 
	C266.989014,280.425934 267.236542,271.791016 266.926147,263.176239 
	C266.670746,256.087341 267.274658,250.358688 273.937622,245.339508 
	C281.565582,239.593384 278.914734,229.887299 269.675018,227.029388 
	C265.621124,225.775513 261.225952,225.624985 256.987305,224.506470 
	C256.983063,185.085709 256.977264,146.131912 256.971497,107.178123 
	C277.991089,106.340416 297.569336,111.735397 316.285675,120.877037 
	C317.914764,121.672737 319.592590,122.368683 321.806702,123.442703 
	C328.893158,128.523865 335.420715,133.273285 342.239685,138.186081 
	C350.008606,146.606064 357.486115,154.862671 365.127625,163.411774 
	C369.382446,170.877640 373.449921,178.064545 377.590088,185.209366 
	C378.189728,186.244202 379.137726,187.077194 379.924561,188.003601 
M325.103302,229.749908 
	C326.533112,229.326065 328.047882,229.080566 329.377991,228.447296 
	C334.985016,225.777771 338.062103,221.328323 338.080750,215.054810 
	C338.098724,209.011032 335.276215,204.541077 329.889893,201.846878 
	C324.253937,199.027832 318.903198,199.857727 314.055908,203.734589 
	C309.401978,207.456802 307.587799,213.866501 309.409271,219.504791 
	C311.440033,225.790878 316.487671,229.292831 325.103302,229.749908 
z"/>
<path fill="#FFFFFF" opacity="1.000000" stroke="none" 
	d="
M256.516113,107.110870 
	C256.977264,146.131912 256.983063,185.085709 257.049896,224.578278 
	C257.110962,225.117065 257.125458,225.307022 256.697845,225.274506 
	C252.660858,225.735168 248.953674,225.860886 245.460556,226.790756 
	C235.189545,229.524963 232.279724,239.398834 240.589172,245.719055 
	C246.624207,250.309387 247.505478,255.320007 247.063263,261.829437 
	C246.737564,266.623596 246.999329,271.457703 246.999329,276.273987 
	C246.999329,281.018616 246.999329,285.763275 246.999329,290.788269 
	C250.837784,290.788269 253.967743,290.788269 257.093201,290.876221 
	C257.088745,290.964203 256.959290,291.083679 256.959290,291.083679 
	C256.963196,306.725281 256.967102,322.366882 256.495148,338.492676 
	C246.303497,338.321075 236.564087,337.905823 226.877182,336.955597 
	C210.485382,335.347626 194.571762,331.520386 179.754593,324.236847 
	C171.945877,320.398376 164.692429,315.430328 157.188263,310.972321 
	C143.328674,298.573090 133.225815,283.837830 128.939896,265.494537 
	C123.493172,242.183136 125.146896,219.243729 132.467590,196.573517 
	C133.270203,194.088043 133.529526,191.427139 134.387512,188.365204 
	C139.502899,179.635406 144.271606,171.388000 149.315292,162.939240 
	C157.352982,154.163727 165.115677,145.589600 173.192413,136.874969 
	C178.329956,133.362625 183.198227,130.051971 187.946121,126.576820 
	C189.165146,125.684563 190.004547,124.273605 191.018341,123.100937 
	C193.353867,122.394440 195.842804,121.998550 198.000778,120.932594 
	C216.311325,111.887901 235.611908,107.094566 256.516113,107.110870 
M180.630768,225.899567 
	C187.508820,230.845718 193.659988,231.133743 199.445633,226.780594 
	C204.426453,223.032990 206.560486,216.114944 204.444687,210.234406 
	C202.241714,204.111496 197.657791,200.698807 191.342209,200.301102 
	C185.194260,199.913956 180.299011,202.775940 177.508270,208.342621 
	C174.419495,214.503784 175.502731,220.274353 180.630768,225.899567 
z"/>
<path fill="#E9EDF5" opacity="1.000000" stroke="none" 
	d="
M157.081726,311.350159 
	C164.692429,315.430328 171.945877,320.398376 179.754593,324.236847 
	C194.571762,331.520386 210.485382,335.347626 226.877182,336.955597 
	C236.564087,337.905823 246.303497,338.321075 256.479065,338.957153 
	C256.938812,338.937378 256.976929,338.976685 256.983643,339.462158 
	C256.998444,345.626678 257.006531,351.305695 257.014648,356.984711 
	C257.014648,356.984711 256.977234,357.023682 256.957947,357.043945 
	C225.940033,357.358887 197.841995,377.602661 190.139053,411.383240 
	C189.444885,414.427399 189.056549,417.610291 189.046051,420.730499 
	C188.953491,448.210724 188.978821,475.691376 188.957123,503.648193 
	C178.467743,500.705994 167.516968,498.292480 157.625015,493.631744 
	C143.017700,486.749359 129.163437,478.268677 114.741165,470.173645 
	C120.328880,447.911987 126.109444,425.930603 132.012054,403.982086 
	C140.285492,373.217926 148.649750,342.478149 157.081726,311.350159 
z"/>
<path fill="#E7ECF5" opacity="1.000000" stroke="none" 
	d="
M190.710510,122.882141 
	C190.004547,124.273605 189.165146,125.684563 187.946121,126.576820 
	C183.198227,130.051971 178.329956,133.362625 172.822662,136.818558 
	C161.697861,133.923920 151.256882,130.945206 140.815887,127.966492 
	C140.313751,128.250397 139.811630,128.534286 139.309494,128.818192 
	C142.553101,140.259003 145.796707,151.699799 149.040314,163.140610 
	C144.271606,171.388000 139.502899,179.635406 134.394348,187.940552 
	C130.213699,173.935165 126.316040,159.887253 122.547630,145.804764 
	C118.562126,130.911011 114.699654,115.984314 110.464371,99.857040 
	C137.705521,107.628914 164.054108,115.146133 190.710510,122.882141 
z"/>
<path fill="#CBD1E1" opacity="1.000000" stroke="none" 
	d="
M341.948273,138.022705 
	C335.420715,133.273285 328.893158,128.523865 322.174683,123.511642 
	C348.888489,115.677010 375.793213,108.105171 402.956543,100.758102 
	C395.617096,129.804047 388.019073,158.625229 380.172791,187.725006 
	C379.137726,187.077194 378.189728,186.244202 377.590088,185.209366 
	C373.449921,178.064545 369.382446,170.877640 365.398132,163.145157 
	C368.509583,151.280167 371.514465,139.974289 374.839996,127.461960 
	C366.468964,129.900024 359.804871,131.728561 353.218018,133.802429 
	C349.397278,135.005386 345.700714,136.602798 341.948273,138.022705 
z"/>
<path fill="#CDD2E1" opacity="1.000000" stroke="none" 
	d="
M257.465759,356.989624 
	C257.006531,351.305695 256.998444,345.626678 257.002930,339.481567 
	C282.677856,339.451630 307.766083,336.098389 331.423523,325.825165 
	C340.168823,322.027496 348.041412,316.220093 356.599487,311.164673 
	C363.249298,334.313019 369.628265,357.621460 375.969879,380.940063 
	C383.962250,410.328735 391.924103,439.725769 399.924896,469.498352 
	C384.583679,480.808380 367.981720,489.421814 350.332794,495.987030 
	C342.560577,498.878174 334.628510,501.339447 326.374451,503.918030 
	C325.982513,478.230469 326.284088,452.616425 325.913147,427.012115 
	C325.433594,393.910400 305.324554,366.592194 272.163269,358.663727 
	C267.545441,357.559631 262.672028,357.524506 257.465759,356.989624 
z"/>
<path fill="#424A53" opacity="1.000000" stroke="none" 
	d="
M257.048340,225.045258 
	C261.225952,225.624985 265.621124,225.775513 269.675018,227.029388 
	C278.914734,229.887299 281.565582,239.593384 273.937622,245.339508 
	C267.274658,250.358688 266.670746,256.087341 266.926147,263.176239 
	C267.236542,271.791016 266.989014,280.425934 266.750488,289.628113 
	C266.287292,290.369385 266.106110,290.577789 265.974548,290.829407 
	C263.268372,290.872894 260.562164,290.916412 257.407654,291.021790 
	C256.959290,291.083679 257.088745,290.964203 257.063232,290.422180 
	C257.066986,268.355774 257.096222,246.831390 257.125458,225.307022 
	C257.125458,225.307022 257.110962,225.117065 257.048340,225.045258 
z"/>
<path fill="#444C55" opacity="1.000000" stroke="none" 
	d="
M324.698792,229.790833 
	C316.487671,229.292831 311.440033,225.790878 309.409271,219.504791 
	C307.587799,213.866501 309.401978,207.456802 314.055908,203.734589 
	C318.903198,199.857727 324.253937,199.027832 329.889893,201.846878 
	C335.276215,204.541077 338.098724,209.011032 338.080750,215.054810 
	C338.062103,221.328323 334.985016,225.777771 329.377991,228.447296 
	C328.047882,229.080566 326.533112,229.326065 324.698792,229.790833 
z"/>
<path fill="#9297AB" opacity="1.000000" stroke="none" 
	d="
M342.239685,138.186066 
	C345.700714,136.602798 349.397278,135.005386 353.218018,133.802429 
	C359.804871,131.728561 366.468964,129.900024 374.839996,127.461960 
	C371.514465,139.974289 368.509583,151.280167 365.234161,162.852661 
	C357.486115,154.862671 350.008606,146.606064 342.239685,138.186066 
z"/>
<path fill="#646A78" opacity="1.000000" stroke="none" 
	d="
M266.245300,290.868866 
	C266.106110,290.577789 266.287292,290.369385 266.694580,290.092590 
	C266.752686,290.290192 266.634369,290.599274 266.245300,290.868866 
z"/>
<path fill="#646A78" opacity="1.000000" stroke="none" 
	d="
M256.697845,225.274506 
	C257.096222,246.831390 257.066986,268.355774 257.067719,290.334198 
	C253.967743,290.788269 250.837784,290.788269 246.999329,290.788269 
	C246.999329,285.763275 246.999329,281.018616 246.999329,276.273987 
	C246.999329,271.457703 246.737564,266.623596 247.063263,261.829437 
	C247.505478,255.320007 246.624207,250.309387 240.589172,245.719055 
	C232.279724,239.398834 235.189545,229.524963 245.460556,226.790756 
	C248.953674,225.860886 252.660858,225.735168 256.697845,225.274506 
z"/>
<path fill="#666C7A" opacity="1.000000" stroke="none" 
	d="
M180.363693,225.645691 
	C175.502731,220.274353 174.419495,214.503784 177.508270,208.342621 
	C180.299011,202.775940 185.194260,199.913956 191.342209,200.301102 
	C197.657791,200.698807 202.241714,204.111496 204.444687,210.234406 
	C206.560486,216.114944 204.426453,223.032990 199.445633,226.780594 
	C193.659988,231.133743 187.508820,230.845718 180.363693,225.645691 
z"/>
<path fill="#BFC4D3" opacity="1.000000" stroke="none" 
	d="
M149.315308,162.939240 
	C145.796707,151.699799 142.553101,140.259003 139.309494,128.818192 
	C139.811630,128.534286 140.313751,128.250397 140.815887,127.966492 
	C151.256882,130.945206 161.697861,133.923920 172.508606,136.959045 
	C165.115677,145.589600 157.352982,154.163727 149.315308,162.939240 
z"/>
</svg>