<svg version="1.1" id="Layer_1" xmlns="http://www.w3.org/2000/svg" xmlns:xlink="http://www.w3.org/1999/xlink" x="0px" y="0px"
	 width="100%" viewBox="0 0 512 512" enable-background="new 0 0 512 512" xml:space="preserve">
<path fill="#09CE67" opacity="1.000000" stroke="none" 
	d="
M235.000000,1.000000 
	C249.354233,1.000000 263.708466,1.000000 278.720032,1.385882 
	C287.311920,2.833299 295.255798,3.830031 303.179291,4.968568 
	C326.539642,8.325266 348.535156,16.120020 369.631622,26.361635 
	C389.504181,36.009087 407.827240,48.100601 424.438141,62.817822 
	C440.170258,76.756454 454.443451,91.900803 466.645996,109.054390 
	C479.449890,127.053421 489.736755,146.379349 497.412872,167.016678 
	C504.105743,185.010498 509.004517,203.532898 511.038269,222.721237 
	C511.474548,226.837219 512.334961,230.908249 513.000000,235.000000 
	C513.000000,249.354233 513.000000,263.708466 512.614136,278.720032 
	C511.179138,286.942963 510.130066,294.508606 508.794861,301.892822 
	C506.935974,300.232941 505.322296,298.795441 503.796356,297.270081 
	C462.760956,256.249664 421.745636,215.209045 380.666901,174.231995 
	C378.979095,172.548370 376.709869,171.447571 374.513489,169.989441 
	C374.094818,169.690323 373.988190,169.430237 373.925537,168.815399 
	C373.414734,168.086853 372.973969,167.666321 372.629883,167.234482 
	C372.726624,167.223175 372.739868,167.417496 372.641113,167.147644 
	C372.273010,166.613770 372.003723,166.349731 371.461426,165.906052 
	C361.512604,153.148712 350.130249,142.415115 337.006805,133.452148 
	C324.333923,124.796906 310.388245,118.954124 295.806763,113.761520 
	C287.181610,104.915451 278.744720,96.335106 270.221863,87.841026 
	C269.352264,86.974380 267.966675,86.625481 266.611511,85.955246 
	C266.148529,85.677269 266.015747,85.418243 265.929443,84.797302 
	C265.392395,84.135117 264.930023,83.772743 264.509613,83.403824 
	C264.551575,83.397293 264.548553,83.482170 264.490662,83.214066 
	C264.168457,82.705650 263.904175,82.465340 263.701843,82.222473 
	C263.763824,82.219933 263.760162,82.343956 263.662994,82.089897 
	C263.298126,81.598717 263.030396,81.361595 262.818359,81.123260 
	C262.874054,81.122040 262.871674,81.233383 262.753052,80.993492 
	C262.365875,80.524544 262.097290,80.295494 261.551270,79.906494 
	C259.837738,78.202225 258.401642,76.657890 256.817688,74.809929 
	C255.680542,73.382576 254.722992,72.228958 253.696823,71.140022 
	C247.342743,64.397423 239.594299,61.752003 230.610687,64.135124 
	C221.853317,66.458237 216.413101,72.382790 214.084152,81.146774 
	C213.882858,81.904259 213.612473,82.643387 213.407379,83.286835 
	C193.070190,83.639740 181.510666,105.104080 195.406448,122.839561 
	C191.894623,124.782936 188.355804,126.567802 184.987793,128.631454 
	C144.058685,153.709427 120.058044,189.864548 114.849907,237.739471 
	C110.968513,273.418427 120.009438,306.010986 140.657654,335.356018 
	C152.427155,352.082733 167.424561,365.323883 184.673370,376.322998 
	C182.816528,382.603088 181.112396,388.490936 179.413177,394.380188 
	C170.136932,426.530701 160.861877,458.681610 151.323395,490.616882 
	C149.401138,489.787109 147.669922,489.317963 146.093613,488.536407 
	C125.703209,478.426910 106.669678,466.326019 89.557899,451.176788 
	C73.820274,437.244080 59.556801,422.091034 47.351963,404.941589 
	C34.544823,386.945831 24.261738,367.617920 16.585949,346.981415 
	C9.893346,328.988220 4.994978,310.466156 2.961706,291.278351 
	C2.525559,287.162476 1.665030,283.091614 0.999999,279.000000 
	C1.000000,264.645782 1.000000,250.291550 1.385881,235.279968 
	C2.833292,226.688141 3.830038,218.744324 4.968553,210.820892 
	C8.325194,187.460526 16.119995,165.464981 26.361574,144.368500 
	C36.008980,124.495941 48.100483,106.172852 62.817757,89.561966 
	C76.756424,73.829872 91.900635,59.556480 109.054321,47.354027 
	C127.053398,34.550198 146.379303,24.263288 167.016617,16.587154 
	C185.010468,9.894266 203.532883,4.995526 222.721222,2.961731 
	C226.837219,2.525472 230.908249,1.665034 235.000000,1.000000 
z"/>
<path fill="#FFA300" opacity="1.000000" stroke="none" 
	d="
M256.965546,75.113556 
	C258.401642,76.657890 259.837738,78.202225 261.636536,80.171440 
	C262.290100,80.808678 262.580872,81.021027 262.871674,81.233383 
	C262.871674,81.233383 262.874054,81.122040 262.895874,81.392105 
	C263.198517,81.889427 263.479340,82.116699 263.760162,82.343964 
	C263.760162,82.343956 263.763824,82.219933 263.772858,82.483429 
	C264.037445,82.992004 264.292999,83.237091 264.548553,83.482178 
	C264.548553,83.482170 264.551575,83.397293 264.637817,83.670761 
	C265.150757,84.328514 265.577423,84.712807 266.004120,85.097099 
	C266.015747,85.418243 266.148529,85.677269 266.728882,86.281174 
	C273.058563,93.946442 279.201782,101.095131 285.006012,108.509254 
	C287.902832,112.209595 291.443451,113.929352 295.970581,114.051773 
	C310.388245,118.954124 324.333923,124.796906 337.006805,133.452148 
	C350.130249,142.415115 361.512604,153.148712 371.549286,166.184418 
	C372.186737,166.900757 372.463318,167.159119 372.739868,167.417480 
	C372.739868,167.417496 372.726624,167.223175 372.729980,167.529770 
	C373.154083,168.265381 373.574829,168.694397 373.995575,169.123413 
	C373.988190,169.430237 374.094818,169.690323 374.622650,170.328735 
	C397.149292,203.925751 405.154144,240.357513 397.554779,279.433533 
	C389.728149,319.677856 367.909576,351.057312 333.321960,373.376068 
	C331.899750,374.293732 330.840851,375.774414 329.263245,377.027618 
	C327.967682,377.367126 326.993469,377.604706 326.079742,377.986847 
	C316.727142,381.898041 307.657806,386.826477 297.965302,389.493896 
	C287.318237,392.424011 276.132629,393.534119 265.118866,394.947906 
	C257.544891,395.920166 257.000580,396.061432 257.000061,403.583618 
	C256.997620,440.055756 256.999573,476.527863 257.000000,513.000000 
	C249.979050,513.000000 242.958099,513.000000 235.275589,512.616699 
	C226.538208,511.160553 218.446472,510.194672 210.389709,508.994049 
	C189.871094,505.936279 170.404144,499.423218 151.586426,490.832367 
	C160.861877,458.681610 170.136932,426.530701 179.413177,394.380188 
	C181.112396,388.490936 182.816528,382.603088 184.960114,376.452148 
	C190.009903,378.494385 194.518585,381.030212 199.244019,383.061890 
	C215.700684,390.137512 232.804764,394.455017 250.809586,395.080780 
	C255.623749,395.248077 257.103088,393.634125 257.064514,388.847748 
	C256.866241,364.250153 256.970612,339.650146 257.439301,315.017059 
	C273.564331,314.966888 289.219299,314.956238 304.874298,314.931366 
	C310.550812,314.922333 315.745239,313.548370 319.986084,309.509308 
	C326.060791,303.723663 328.297211,292.338440 324.995667,283.934021 
	C321.803345,275.807617 314.912231,271.167999 305.430450,271.093201 
	C289.277344,270.965790 273.123047,270.989044 256.968445,270.483582 
	C256.966949,205.049942 256.966248,140.081757 256.965546,75.113556 
M331.107178,246.821106 
	C331.677612,248.199158 332.123657,249.645874 332.839722,250.943573 
	C336.233704,257.094208 343.122101,260.238525 350.206024,258.959198 
	C356.565552,257.810669 362.048828,252.239853 363.047729,245.912460 
	C364.220032,238.486694 360.902802,231.533218 354.420502,228.393234 
	C348.760437,225.651520 343.056061,225.883530 337.831787,229.448685 
	C332.040588,233.400726 330.024353,239.129074 331.107178,246.821106 
z"/>
<path fill="#FFFFFF" opacity="1.000000" stroke="none" 
	d="
M509.080994,302.074219 
	C510.130066,294.508606 511.179138,286.942963 512.614136,279.188660 
	C513.000000,356.927185 513.000000,434.854370 513.000000,513.000000 
	C434.979248,513.000000 356.958282,513.000000 278.664398,512.616821 
	C307.966583,510.495422 335.977295,502.692627 363.198517,490.256897 
	C371.273376,486.272339 379.294708,482.987213 386.656647,478.596466 
	C413.700073,462.467285 437.103821,442.100769 456.997437,417.606110 
	C475.879272,394.357178 490.196869,368.590851 499.697540,340.314117 
	C503.863129,327.916168 506.014832,314.841583 509.080994,302.074219 
z"/>
<path fill="#FFFFFF" opacity="1.000000" stroke="none" 
	d="
M234.531342,1.000000 
	C230.908249,1.665034 226.837219,2.525472 222.721222,2.961731 
	C203.532883,4.995526 185.010468,9.894266 167.016617,16.587154 
	C146.379303,24.263288 127.053398,34.550198 109.054321,47.354027 
	C91.900635,59.556480 76.756424,73.829872 62.817757,89.561966 
	C48.100483,106.172852 36.008980,124.495941 26.361574,144.368500 
	C16.119995,165.464981 8.325194,187.460526 4.968553,210.820892 
	C3.830038,218.744324 2.833292,226.688141 1.385881,234.811310 
	C1.000000,157.072952 1.000000,79.145912 1.000000,1.000000 
	C78.687424,1.000000 156.375061,1.000000 234.531342,1.000000 
z"/>
<path fill="#FFFFFF" opacity="1.000000" stroke="none" 
	d="
M513.000000,234.531342 
	C512.334961,230.908249 511.474548,226.837219 511.038269,222.721237 
	C509.004517,203.532898 504.105743,185.010498 497.412872,167.016678 
	C489.736755,146.379349 479.449890,127.053421 466.645996,109.054390 
	C454.443451,91.900803 440.170258,76.756454 424.438141,62.817822 
	C407.827240,48.100601 389.504181,36.009087 369.631622,26.361635 
	C348.535156,16.120020 326.539642,8.325266 303.179291,4.968568 
	C295.255798,3.830031 287.311920,2.833299 279.188690,1.385882 
	C356.927032,1.000000 434.854095,1.000000 513.000000,1.000000 
	C513.000000,78.687424 513.000000,156.375061 513.000000,234.531342 
z"/>
<path fill="#FFFFFF" opacity="1.000000" stroke="none" 
	d="
M151.323395,490.616882 
	C170.404144,499.423218 189.871094,505.936279 210.389709,508.994049 
	C218.446472,510.194672 226.538208,511.160553 234.807007,512.616699 
	C157.072968,513.000000 79.145927,513.000000 1.000000,513.000000 
	C1.000000,435.312561 1.000000,357.624939 0.999999,279.468658 
	C1.665030,283.091614 2.525559,287.162476 2.961706,291.278351 
	C4.994978,310.466156 9.893346,328.988220 16.585949,346.981415 
	C24.261738,367.617920 34.544823,386.945831 47.351963,404.941589 
	C59.556801,422.091034 73.820274,437.244080 89.557899,451.176788 
	C106.669678,466.326019 125.703209,478.426910 146.093613,488.536407 
	C147.669922,489.317963 149.401138,489.787109 151.323395,490.616882 
z"/>
<path fill="#FE9500" opacity="1.000000" stroke="none" 
	d="
M362.842407,490.448914 
	C335.977295,502.692627 307.966583,510.495422 278.195740,512.616821 
	C271.312347,513.000000 264.624725,513.000000 257.468536,513.000000 
	C256.999573,476.527863 256.997620,440.055756 257.000061,403.583618 
	C257.000580,396.061432 257.544891,395.920166 265.118866,394.947906 
	C276.132629,393.534119 287.318237,392.424011 297.965302,389.493896 
	C307.657806,386.826477 316.727142,381.898041 326.079742,377.986847 
	C326.993469,377.604706 327.967682,377.367126 329.410248,377.397888 
	C330.925568,381.221771 331.944031,384.710327 332.963348,388.198639 
	C342.922974,422.282074 352.882721,456.365479 362.842407,490.448914 
z"/>
<path fill="#FECE00" opacity="1.000000" stroke="none" 
	d="
M256.969269,315.050964 
	C256.970612,339.650146 256.866241,364.250153 257.064514,388.847748 
	C257.103088,393.634125 255.623749,395.248077 250.809586,395.080780 
	C232.804764,394.455017 215.700684,390.137512 199.244019,383.061890 
	C194.518585,381.030212 190.009903,378.494385 185.115097,376.060547 
	C167.424561,365.323883 152.427155,352.082733 140.657654,335.356018 
	C120.009438,306.010986 110.968513,273.418427 114.849907,237.739471 
	C120.058044,189.864548 144.058685,153.709427 184.987793,128.631454 
	C188.355804,126.567802 191.894623,124.782936 195.406448,122.839561 
	C181.510666,105.104080 193.070190,83.639740 213.407379,83.286835 
	C213.612473,82.643387 213.882858,81.904259 214.084152,81.146774 
	C216.413101,72.382790 221.853317,66.458237 230.610687,64.135124 
	C239.594299,61.752003 247.342743,64.397423 253.696823,71.140022 
	C254.722992,72.228958 255.680542,73.382576 256.817688,74.809937 
	C256.966248,140.081757 256.966949,205.049942 256.993103,270.532654 
	C257.018555,271.047180 257.075165,271.141266 256.601196,271.126465 
	C240.499481,271.118469 224.870956,271.030090 209.244339,271.164551 
	C198.327988,271.258423 190.259018,276.885986 188.464951,286.297546 
	C185.067200,304.122009 193.801575,315.010468 210.691513,314.896057 
	C226.152161,314.791321 241.613998,314.864166 257.046967,314.905823 
	C257.018616,314.952881 256.969269,315.050964 256.969269,315.050964 
M180.641800,251.932159 
	C184.871674,243.674026 183.805527,235.903870 177.716980,230.615677 
	C172.035309,225.680923 163.387787,225.261368 157.389084,229.725510 
	C151.909515,233.803314 149.855072,239.403931 151.017334,245.996506 
	C152.158508,252.469437 156.191162,256.855499 162.469223,258.558258 
	C169.532669,260.474030 175.607697,258.446289 180.641800,251.932159 
z"/>
<path fill="#1AAD5C" opacity="1.000000" stroke="none" 
	d="
M363.198517,490.256897 
	C352.882721,456.365479 342.922974,422.282074 332.963348,388.198639 
	C331.944031,384.710327 330.925568,381.221771 329.759674,377.363068 
	C330.840851,375.774414 331.899750,374.293732 333.321960,373.376068 
	C367.909576,351.057312 389.728149,319.677856 397.554779,279.433533 
	C405.154144,240.357513 397.149292,203.925751 374.820679,170.414520 
	C376.709869,171.447571 378.979095,172.548370 380.666901,174.231995 
	C421.745636,215.209045 462.760956,256.249664 503.796356,297.270081 
	C505.322296,298.795441 506.935974,300.232941 508.794861,301.892822 
	C506.014832,314.841583 503.863129,327.916168 499.697540,340.314117 
	C490.196869,368.590851 475.879272,394.357178 456.997437,417.606110 
	C437.103821,442.100769 413.700073,462.467285 386.656647,478.596466 
	C379.294708,482.987213 371.273376,486.272339 363.198517,490.256897 
z"/>
<path fill="#23AE58" opacity="1.000000" stroke="none" 
	d="
M295.806763,113.761520 
	C291.443451,113.929352 287.902832,112.209595 285.006012,108.509254 
	C279.201782,101.095131 273.058563,93.946442 266.937897,86.362244 
	C267.966675,86.625481 269.352264,86.974380 270.221863,87.841026 
	C278.744720,96.335106 287.181610,104.915451 295.806763,113.761520 
z"/>
<path fill="#1AAD5C" opacity="1.000000" stroke="none" 
	d="
M373.925537,168.815399 
	C373.574829,168.694397 373.154083,168.265381 372.633240,167.541077 
	C372.973969,167.666321 373.414734,168.086853 373.925537,168.815399 
z"/>
<path fill="#23AE58" opacity="1.000000" stroke="none" 
	d="
M265.929443,84.797302 
	C265.577423,84.712807 265.150757,84.328514 264.595856,83.677292 
	C264.930023,83.772743 265.392395,84.135117 265.929443,84.797302 
z"/>
<path fill="#1AAD5C" opacity="1.000000" stroke="none" 
	d="
M372.641113,167.147644 
	C372.463318,167.159119 372.186737,166.900757 371.822296,166.364044 
	C372.003723,166.349731 372.273010,166.613770 372.641113,167.147644 
z"/>
<path fill="#23AE58" opacity="1.000000" stroke="none" 
	d="
M264.490662,83.214066 
	C264.292999,83.237091 264.037445,82.992004 263.710876,82.485977 
	C263.904175,82.465340 264.168457,82.705650 264.490662,83.214066 
z"/>
<path fill="#23AE58" opacity="1.000000" stroke="none" 
	d="
M263.662994,82.089905 
	C263.479340,82.116699 263.198517,81.889427 262.840210,81.393318 
	C263.030396,81.361595 263.298126,81.598717 263.662994,82.089905 
z"/>
<path fill="#23AE58" opacity="1.000000" stroke="none" 
	d="
M262.753052,80.993484 
	C262.580872,81.021027 262.290100,80.808678 261.914001,80.331390 
	C262.097290,80.295494 262.365875,80.524544 262.753052,80.993484 
z"/>
<path fill="#F24600" opacity="1.000000" stroke="none" 
	d="
M256.993896,270.998108 
	C273.123047,270.989044 289.277344,270.965790 305.430450,271.093201 
	C314.912231,271.167999 321.803345,275.807617 324.995667,283.934021 
	C328.297211,292.338440 326.060791,303.723663 319.986084,309.509308 
	C315.745239,313.548370 310.550812,314.922333 304.874298,314.931366 
	C289.219299,314.956238 273.564331,314.966888 257.439301,315.017059 
	C256.969269,315.050964 257.018616,314.952881 257.024414,314.448883 
	C257.045227,299.677002 257.060181,285.409149 257.075134,271.141266 
	C257.075165,271.141266 257.018555,271.047180 256.993896,270.998108 
z"/>
<path fill="#353A3F" opacity="1.000000" stroke="none" 
	d="
M331.043243,246.402679 
	C330.024353,239.129074 332.040588,233.400726 337.831787,229.448685 
	C343.056061,225.883530 348.760437,225.651520 354.420502,228.393234 
	C360.902802,231.533218 364.220032,238.486694 363.047729,245.912460 
	C362.048828,252.239853 356.565552,257.810669 350.206024,258.959198 
	C343.122101,260.238525 336.233704,257.094208 332.839722,250.943573 
	C332.123657,249.645874 331.677612,248.199158 331.043243,246.402679 
z"/>
<path fill="#FE6B16" opacity="1.000000" stroke="none" 
	d="
M256.601166,271.126465 
	C257.060181,285.409149 257.045227,299.677002 257.052795,314.401825 
	C241.613998,314.864166 226.152161,314.791321 210.691513,314.896057 
	C193.801575,315.010468 185.067200,304.122009 188.464951,286.297546 
	C190.259018,276.885986 198.327988,271.258423 209.244339,271.164551 
	C224.870956,271.030090 240.499481,271.118469 256.601166,271.126465 
z"/>
<path fill="#575B65" opacity="1.000000" stroke="none" 
	d="
M180.413239,252.232056 
	C175.607697,258.446289 169.532669,260.474030 162.469223,258.558258 
	C156.191162,256.855499 152.158508,252.469437 151.017334,245.996506 
	C149.855072,239.403931 151.909515,233.803314 157.389084,229.725510 
	C163.387787,225.261368 172.035309,225.680923 177.716980,230.615677 
	C183.805527,235.903870 184.871674,243.674026 180.413239,252.232056 
z"/>
</svg>