<svg version="1.1" id="Layer_1" xmlns="http://www.w3.org/2000/svg" xmlns:xlink="http://www.w3.org/1999/xlink" x="0px" y="0px"
	 width="100%" viewBox="0 0 512 512" enable-background="new 0 0 512 512" xml:space="preserve">
<path fill="#1EA1E3" opacity="1.000000" stroke="none" 
	d="
M236.000000,1.000001 
	C250.354233,1.000000 264.708466,1.000000 279.736450,1.374194 
	C291.705902,3.483747 303.063904,4.890675 314.285095,7.018919 
	C342.662262,12.401018 368.769409,23.732430 393.195923,38.838409 
	C415.577362,52.679646 435.208740,69.832405 452.435333,89.819046 
	C466.072510,105.641136 478.086823,122.570183 486.889954,141.435547 
	C493.683502,155.994385 499.249634,171.178986 504.501160,186.382553 
	C507.234650,194.296204 508.107178,202.852676 509.541626,210.942291 
	C507.589844,209.142700 505.895111,207.541290 504.246857,205.893402 
	C467.613373,169.268204 430.995361,132.627502 394.320190,96.044144 
	C392.751862,94.479706 390.663696,93.436424 388.860016,92.124519 
	C388.902344,92.098663 388.956299,92.181915 388.867615,91.917793 
	C388.487793,91.436089 388.196655,91.218513 387.950317,91.002213 
	C387.995117,91.003494 387.992279,91.093086 387.894714,90.843460 
	C387.513275,90.387596 387.229370,90.181351 386.984558,89.977921 
	C387.023621,89.980728 387.019440,90.058937 386.923645,89.816666 
	C386.557159,89.366188 386.286499,89.157982 386.033264,88.954613 
	C386.050751,88.959450 386.053192,88.995636 385.983887,88.654617 
	C385.089691,87.548866 384.264771,86.784134 383.183594,85.847076 
	C379.468750,81.900185 376.010193,78.125626 371.504822,73.208611 
	C358.392334,89.880386 345.617004,106.123459 332.758270,122.472557 
	C312.200287,111.617035 289.855560,104.101463 265.062897,103.734467 
	C256.219147,103.869438 247.734528,103.791794 239.342255,104.634262 
	C221.681473,106.407150 205.027908,111.885963 188.877167,119.247665 
	C181.091324,111.411667 173.516266,103.793335 165.824722,96.294502 
	C164.638702,95.138191 162.917404,94.530891 161.415527,93.591873 
	C161.387390,93.514046 161.536316,93.441856 161.512238,93.154297 
	C161.166428,92.684326 160.844681,92.501915 160.593811,92.260651 
	C160.664688,92.201797 160.773621,92.350403 160.683746,92.073456 
	C160.290070,91.566887 159.986298,91.337273 159.774780,91.090378 
	C159.867035,91.073090 159.895386,91.258682 159.785126,90.997559 
	C159.384659,90.503075 159.094452,90.269714 158.867432,90.009430 
	C158.930649,89.982506 158.984085,90.109085 158.797455,89.842789 
	C158.229645,89.377350 157.848480,89.178207 157.213455,88.802460 
	C152.632736,83.826111 148.305862,79.026360 143.686523,73.902145 
	C138.732162,79.465446 133.996918,84.563858 129.506149,89.869209 
	C118.851700,102.456253 109.204765,115.714302 101.442986,130.360733 
	C89.585884,152.734985 101.468254,178.776382 119.757828,189.248810 
	C110.010170,209.602951 104.704178,230.688583 104.209747,253.424957 
	C105.023415,261.285675 105.340477,268.805603 106.893349,276.061035 
	C109.562157,288.530365 116.826950,298.796539 124.162560,309.309937 
	C119.554268,344.802826 114.991020,379.860413 110.513542,414.928986 
	C108.475945,430.887878 106.607979,446.868439 104.365585,462.565033 
	C103.077927,461.410309 102.159470,460.429138 101.086777,459.664276 
	C85.481163,448.537384 72.171600,434.885956 60.047249,420.266571 
	C45.417095,402.625763 33.393875,383.222595 23.918612,362.187683 
	C11.565668,334.764343 4.040162,306.083313 2.287344,276.252136 
	C1.002158,254.379578 1.499721,232.403656 5.752824,210.563080 
	C10.181640,187.820190 16.982521,166.030884 26.987156,145.216705 
	C36.531956,125.359161 48.549828,107.115448 62.989025,90.421753 
	C76.668297,74.606628 91.738869,60.305927 108.705559,48.136768 
	C127.091843,34.949409 146.945969,24.259007 168.200760,16.478851 
	C186.142731,9.911331 204.570343,4.986596 223.671173,2.959118 
	C227.803543,2.520484 231.891556,1.664014 236.000000,1.000001 
z"/>
<path fill="#FFFFFF" opacity="1.000000" stroke="none" 
	d="
M235.531342,1.000001 
	C231.891556,1.664014 227.803543,2.520484 223.671173,2.959118 
	C204.570343,4.986596 186.142731,9.911331 168.200760,16.478851 
	C146.945969,24.259007 127.091843,34.949409 108.705559,48.136768 
	C91.738869,60.305927 76.668297,74.606628 62.989025,90.421753 
	C48.549828,107.115448 36.531956,125.359161 26.987156,145.216705 
	C16.982521,166.030884 10.181640,187.820190 5.752824,210.563080 
	C1.499721,232.403656 1.002158,254.379578 2.287344,276.252136 
	C4.040162,306.083313 11.565668,334.764343 23.918612,362.187683 
	C33.393875,383.222595 45.417095,402.625763 60.047249,420.266571 
	C72.171600,434.885956 85.481163,448.537384 101.086777,459.664276 
	C102.159470,460.429138 103.077927,461.410309 104.625549,462.561951 
	C113.277702,468.204010 121.006096,474.268890 129.554138,478.781036 
	C141.940918,485.319427 154.920303,490.735138 168.004120,496.797882 
	C174.357224,498.983917 180.240768,501.480286 186.372437,502.919861 
	C199.067276,505.900299 211.889435,508.341492 224.669510,510.954224 
	C228.428635,511.722748 232.222214,512.322754 236.000000,513.000000 
	C157.701569,513.000000 79.403145,513.000000 1.052359,513.000000 
	C1.052359,342.444305 1.052359,171.888580 1.052359,1.000000 
	C79.020576,1.000000 157.041626,1.000000 235.531342,1.000001 
z"/>
<path fill="#0154BF" opacity="1.000000" stroke="none" 
	d="
M388.817688,92.150375 
	C390.663696,93.436424 392.751862,94.479706 394.320190,96.044144 
	C430.995361,132.627502 467.613373,169.268204 504.246857,205.893402 
	C505.895111,207.541290 507.589844,209.142700 509.744812,211.288300 
	C510.465546,212.708450 510.774872,213.594009 510.931122,214.505814 
	C511.644226,218.666504 512.314392,222.834579 513.000000,227.000000 
	C513.000000,247.020889 513.000000,267.041779 512.613159,287.701416 
	C510.329590,299.122650 509.079437,310.068970 506.398590,320.652863 
	C501.188751,341.221191 493.484131,360.862823 483.197937,379.539856 
	C472.538971,398.893829 460.186127,416.988342 444.598846,432.603027 
	C434.230438,442.989624 422.833466,452.349426 411.809570,461.762207 
	C411.506378,460.382538 411.209778,459.419556 411.086334,458.434845 
	C408.652924,439.020508 406.314911,419.593872 403.804871,400.189484 
	C399.869690,369.768433 395.821075,339.362061 391.958588,308.634247 
	C393.580200,306.320831 395.109100,304.354523 396.539917,302.319305 
	C406.922485,287.551300 413.097870,271.472717 411.882507,252.628448 
	C411.388916,230.061111 405.919464,209.132767 396.297394,189.129959 
	C405.602966,183.150421 412.286896,175.377548 416.268005,165.287613 
	C422.016968,150.717300 419.402283,137.123856 411.192749,124.470711 
	C404.064026,113.483406 396.300598,102.907898 388.817688,92.150375 
z"/>
<path fill="#FFFFFF" opacity="1.000000" stroke="none" 
	d="
M411.896820,462.168762 
	C422.833466,452.349426 434.230438,442.989624 444.598846,432.603027 
	C460.186127,416.988342 472.538971,398.893829 483.197937,379.539856 
	C493.484131,360.862823 501.188751,341.221191 506.398590,320.652863 
	C509.079437,310.068970 510.329590,299.122650 512.613159,288.170044 
	C513.000000,362.928467 513.000000,437.856934 513.000000,513.000000 
	C435.312561,513.000000 357.624939,513.000000 279.657623,512.615356 
	C285.927704,511.483948 292.513733,510.967896 299.020172,509.945374 
	C315.881683,507.295410 332.429901,503.388580 348.572510,496.801086 
	C353.238647,495.023926 357.751862,493.536591 361.855469,491.298340 
	C374.526917,484.386871 387.078278,477.251953 399.597717,470.067017 
	C403.818268,467.644836 407.803864,464.813263 411.896820,462.168762 
z"/>
<path fill="#FFFFFF" opacity="1.000000" stroke="none" 
	d="
M513.000000,226.531342 
	C512.314392,222.834579 511.644226,218.666504 510.931122,214.505814 
	C510.774872,213.594009 510.465546,212.708450 510.023529,211.464798 
	C508.107178,202.852676 507.234650,194.296204 504.501160,186.382553 
	C499.249634,171.178986 493.683502,155.994385 486.889954,141.435547 
	C478.086823,122.570183 466.072510,105.641136 452.435333,89.819046 
	C435.208740,69.832405 415.577362,52.679646 393.195923,38.838409 
	C368.769409,23.732430 342.662262,12.401018 314.285095,7.018919 
	C303.063904,4.890675 291.705902,3.483747 280.205078,1.374194 
	C357.592590,1.000000 435.185181,1.000000 513.000000,1.000000 
	C513.000000,76.020744 513.000000,151.041718 513.000000,226.531342 
z"/>
<path fill="#FA5D0F" opacity="1.000000" stroke="none" 
	d="
M348.232269,496.747467 
	C332.429901,503.388580 315.881683,507.295410 299.020172,509.945374 
	C292.513733,510.967896 285.927704,511.483948 279.188965,512.615356 
	C272.312347,513.000000 265.624725,513.000000 258.468536,512.531372 
	C258.001129,474.045990 258.002289,436.029297 257.981506,397.968811 
	C257.959625,397.924988 257.927734,397.832581 258.396027,397.873169 
	C263.493256,398.268433 268.192230,398.230499 272.739655,399.041992 
	C300.780090,404.045563 322.022736,418.725494 335.963531,443.778198 
	C345.149902,460.286804 346.479523,478.551056 348.232269,496.747467 
z"/>
<path fill="#FE6A16" opacity="1.000000" stroke="none" 
	d="
M258.003418,398.012604 
	C258.002289,436.029297 258.001129,474.045990 258.000000,512.531372 
	C250.979050,513.000000 243.958099,513.000000 236.468567,513.000000 
	C232.222214,512.322754 228.428635,511.722748 224.669510,510.954224 
	C211.889435,508.341492 199.067276,505.900299 186.372437,502.919861 
	C180.240768,501.480286 174.357224,498.983917 168.099152,496.385193 
	C168.848099,487.914581 169.675781,479.996216 170.900803,472.139801 
	C177.726929,428.362061 213.715408,397.780487 258.003418,398.012604 
z"/>
<path fill="#FA670D" opacity="1.000000" stroke="none" 
	d="
M388.860016,92.124527 
	C396.300598,102.907898 404.064026,113.483406 411.192749,124.470711 
	C419.402283,137.123856 422.016968,150.717300 416.268005,165.287613 
	C412.286896,175.377548 405.602966,183.150421 396.297394,189.129959 
	C405.919464,209.132767 411.388916,230.061111 411.427063,252.620438 
	C378.924683,253.061905 346.963654,252.975433 315.004211,253.157990 
	C310.887299,253.181519 308.662323,252.055511 306.386047,248.462234 
	C295.185883,230.781586 279.062561,221.450607 257.946930,221.235687 
	C257.985718,221.134872 258.028931,220.923203 258.021851,220.459412 
	C258.009460,183.932831 258.003143,147.870056 257.999573,111.807281 
	C257.998810,104.189270 258.003479,104.189270 265.463837,103.938660 
	C289.855560,104.101463 312.200287,111.617035 332.758270,122.472557 
	C345.617004,106.123459 358.392334,89.880386 371.504822,73.208611 
	C376.010193,78.125626 379.468750,81.900185 383.335785,86.151794 
	C384.513885,87.417778 385.283539,88.206711 386.053192,88.995636 
	C386.053192,88.995636 386.050751,88.959450 386.102173,89.215179 
	C386.442200,89.666924 386.730804,89.862930 387.019440,90.058937 
	C387.019440,90.058937 387.023621,89.980728 387.054474,90.249268 
	C387.387634,90.709564 387.689972,90.901329 387.992279,91.093094 
	C387.992279,91.093086 387.995117,91.003494 388.001770,91.294037 
	C388.324371,91.783699 388.640320,91.982803 388.956299,92.181915 
	C388.956299,92.181915 388.902344,92.098663 388.860016,92.124527 
M378.207031,161.295319 
	C379.859497,163.378983 381.309601,165.687408 383.258453,167.441879 
	C384.104553,168.203613 386.365051,168.453766 387.320618,167.863586 
	C393.845703,163.833466 399.000000,152.839355 396.220978,145.642044 
	C392.734100,136.611435 387.797791,128.083237 382.913177,119.671425 
	C380.064728,114.766098 376.094849,110.511963 371.815002,104.896027 
	C365.116730,114.815094 359.007690,123.663208 353.232361,132.724014 
	C352.661194,133.620117 353.678589,136.251236 354.725250,137.340424 
	C362.311218,145.234634 370.094238,152.939514 378.207031,161.295319 
M337.934906,187.207367 
	C330.712006,192.560120 328.454651,199.478622 331.596466,206.633881 
	C334.363251,212.935028 341.206787,216.814011 347.767853,215.633438 
	C353.994232,214.513123 358.309357,211.036972 360.199219,204.867493 
	C362.032745,198.881897 360.544342,193.594833 356.089050,189.424606 
	C350.985016,184.647156 345.017975,183.802902 337.934906,187.207367 
z"/>
<path fill="#FE6A17" opacity="1.000000" stroke="none" 
	d="
M265.062897,103.734467 
	C258.003479,104.189270 257.998810,104.189270 257.999573,111.807281 
	C258.003143,147.870056 258.009460,183.932831 257.617889,220.586029 
	C235.850525,222.345016 219.483765,231.835068 208.296494,250.244583 
	C207.437057,251.658905 204.979645,252.871872 203.259277,252.879410 
	C170.263107,253.024353 137.266068,252.974640 104.269211,252.965149 
	C104.704178,230.688583 110.010170,209.602951 120.066978,189.086334 
	C124.235512,182.108047 128.097778,175.647430 132.141296,168.886993 
	C141.424820,155.943558 152.359070,145.044037 164.575592,134.976929 
	C170.941727,130.967468 176.980392,127.034584 183.245712,122.856186 
	C185.331528,121.575264 187.190674,120.539879 189.049820,119.504486 
	C205.027908,111.885963 221.681473,106.407150 239.342255,104.634262 
	C247.734528,103.791794 256.219147,103.869438 265.062897,103.734467 
M185.377823,202.840652 
	C186.291046,191.655197 177.475647,183.182205 167.306442,185.471191 
	C159.696960,187.184006 154.570068,193.861618 155.040268,201.447525 
	C155.496246,208.803833 161.232376,214.793915 168.718124,215.730957 
	C176.265640,216.675735 182.637894,211.995987 185.377823,202.840652 
z"/>
<path fill="#FFFFFE" opacity="1.000000" stroke="none" 
	d="
M104.209747,253.424957 
	C137.266068,252.974640 170.263107,253.024353 203.259277,252.879410 
	C204.979645,252.871872 207.437057,251.658905 208.296494,250.244583 
	C219.483765,231.835068 235.850525,222.345016 257.624939,221.049835 
	C258.028931,220.923203 257.985718,221.134872 257.966400,221.676270 
	C257.971588,226.124557 257.996124,230.031448 257.581421,234.107513 
	C252.484909,234.418808 247.800049,234.289963 243.176392,234.761459 
	C234.494781,235.646759 227.941605,241.736252 226.229355,250.037979 
	C224.588516,257.993439 228.589630,266.624603 236.148743,270.625336 
	C239.802994,272.559357 243.710953,274.082306 247.629639,275.424774 
	C250.297058,276.338562 251.092316,277.748322 251.053482,280.525970 
	C250.890488,292.184875 250.984818,303.847351 250.984894,315.508545 
	C250.984909,318.618408 250.984909,321.728271 250.984909,324.834473 
	C253.758286,325.007599 255.905823,325.141663 258.038269,325.726868 
	C258.035461,345.368469 258.047760,364.558990 257.683289,383.755646 
	C254.291580,382.831482 251.249588,381.980164 248.265778,380.958923 
	C202.138428,365.171509 158.087219,345.803467 124.242630,308.879120 
	C116.826950,298.796539 109.562157,288.530365 106.893349,276.061035 
	C105.340477,268.805603 105.023415,261.285675 104.209747,253.424957 
z"/>
<path fill="#FEA301" opacity="1.000000" stroke="none" 
	d="
M124.162560,309.309937 
	C158.087219,345.803467 202.138428,365.171509 248.265778,380.958923 
	C251.249588,381.980164 254.291580,382.831482 257.662720,383.850189 
	C258.018890,383.938568 257.961395,384.123383 257.969696,384.579712 
	C257.961243,389.301544 257.944489,393.567047 257.927734,397.832581 
	C257.927734,397.832581 257.959625,397.924988 257.981506,397.968811 
	C213.715408,397.780487 177.726929,428.362061 170.900803,472.139801 
	C169.675781,479.996216 168.848099,487.914581 167.741943,496.217041 
	C154.920303,490.735138 141.940918,485.319427 129.554138,478.781036 
	C121.006096,474.268890 113.277702,468.204010 104.923035,462.836121 
	C106.607979,446.868439 108.475945,430.887878 110.513542,414.928986 
	C114.991020,379.860413 119.554268,344.802826 124.162560,309.309937 
z"/>
<path fill="#FDA428" opacity="1.000000" stroke="none" 
	d="
M183.019058,123.101700 
	C176.980392,127.034584 170.941727,130.967468 164.366531,134.688583 
	C157.950562,124.516174 151.692810,114.835320 143.149811,105.593323 
	C137.209320,114.196358 131.370346,121.888435 126.414078,130.112488 
	C123.372040,135.160233 121.332779,140.907455 119.472733,146.548172 
	C117.172974,153.522324 124.709625,168.258881 131.960052,169.186798 
	C128.097778,175.647430 124.235512,182.108047 120.064102,188.731140 
	C101.468254,178.776382 89.585884,152.734985 101.442986,130.360733 
	C109.204765,115.714302 118.851700,102.456253 129.506149,89.869209 
	C133.996918,84.563858 138.732162,79.465446 143.686523,73.902145 
	C148.305862,79.026360 152.632736,83.826111 157.386063,89.103027 
	C158.203049,89.756485 158.593567,89.932785 158.984085,90.109085 
	C158.984085,90.109085 158.930649,89.982506 158.875671,90.341476 
	C159.178940,90.886528 159.537155,91.072601 159.895386,91.258682 
	C159.895386,91.258682 159.867035,91.073090 159.773865,91.425583 
	C160.044998,91.968842 160.409317,92.159622 160.773621,92.350403 
	C160.773621,92.350403 160.664688,92.201797 160.617859,92.555428 
	C160.892776,93.086655 161.214554,93.264259 161.536316,93.441856 
	C161.536316,93.441856 161.387390,93.514046 161.537903,93.898529 
	C167.741867,102.711937 173.777908,111.153473 179.867386,119.556290 
	C180.790680,120.830322 181.962296,121.924393 183.019058,123.101700 
z"/>
<path fill="#0A57BA" opacity="1.000000" stroke="none" 
	d="
M183.245712,122.856178 
	C181.962296,121.924393 180.790680,120.830322 179.867386,119.556290 
	C173.777908,111.153473 167.741867,102.711937 161.566040,93.976357 
	C162.917404,94.530891 164.638702,95.138191 165.824722,96.294502 
	C173.516266,103.793335 181.091324,111.411667 188.877167,119.247673 
	C187.190674,120.539879 185.331528,121.575264 183.245712,122.856178 
z"/>
<path fill="#0154BF" opacity="1.000000" stroke="none" 
	d="
M385.983887,88.654617 
	C385.283539,88.206711 384.513885,87.417778 383.592072,86.324127 
	C384.264771,86.784134 385.089691,87.548866 385.983887,88.654617 
z"/>
<path fill="#0154BF" opacity="1.000000" stroke="none" 
	d="
M387.894714,90.843460 
	C387.689972,90.901329 387.387634,90.709564 387.015411,90.246460 
	C387.229370,90.181351 387.513275,90.387596 387.894714,90.843460 
z"/>
<path fill="#0A57BA" opacity="1.000000" stroke="none" 
	d="
M158.797455,89.842789 
	C158.593567,89.932785 158.203049,89.756485 157.639923,89.279617 
	C157.848480,89.178207 158.229645,89.377350 158.797455,89.842789 
z"/>
<path fill="#0154BF" opacity="1.000000" stroke="none" 
	d="
M386.923645,89.816666 
	C386.730804,89.862930 386.442200,89.666924 386.084686,89.210342 
	C386.286499,89.157982 386.557159,89.366188 386.923645,89.816666 
z"/>
<path fill="#0A57BA" opacity="1.000000" stroke="none" 
	d="
M159.785126,90.997559 
	C159.537155,91.072601 159.178940,90.886528 158.812469,90.368401 
	C159.094452,90.269714 159.384659,90.503075 159.785126,90.997559 
z"/>
<path fill="#0A57BA" opacity="1.000000" stroke="none" 
	d="
M161.512238,93.154297 
	C161.214554,93.264259 160.892776,93.086655 160.546967,92.614281 
	C160.844681,92.501915 161.166428,92.684326 161.512238,93.154297 
z"/>
<path fill="#0A57BA" opacity="1.000000" stroke="none" 
	d="
M160.683746,92.073456 
	C160.409317,92.159622 160.044998,91.968842 159.681610,91.442863 
	C159.986298,91.337273 160.290070,91.566887 160.683746,92.073456 
z"/>
<path fill="#0154BF" opacity="1.000000" stroke="none" 
	d="
M388.867615,91.917786 
	C388.640320,91.982803 388.324371,91.783699 387.956970,91.292763 
	C388.196655,91.218513 388.487793,91.436089 388.867615,91.917786 
z"/>
<path fill="#F2F5FB" opacity="1.000000" stroke="none" 
	d="
M258.020630,233.938339 
	C257.996124,230.031448 257.971588,226.124557 257.927612,221.777084 
	C279.062561,221.450607 295.185883,230.781586 306.386047,248.462234 
	C308.662323,252.055511 310.887299,253.181519 315.004211,253.157990 
	C346.963654,252.975433 378.924683,253.061905 411.340668,253.073151 
	C413.097870,271.472717 406.922485,287.551300 396.539917,302.319305 
	C395.109100,304.354523 393.580200,306.320831 391.667053,308.784180 
	C380.693665,318.604095 370.848022,328.927368 359.471741,337.127045 
	C328.745361,359.273621 293.924438,373.039856 257.961395,384.123383 
	C257.961395,384.123383 258.018890,383.938568 258.039490,383.844025 
	C258.047760,364.558990 258.035461,345.368469 258.104004,325.603516 
	C258.184784,325.029083 257.966034,324.855164 258.417755,324.945496 
	C260.816803,325.035828 262.764130,325.035828 265.168030,325.035828 
	C265.168030,323.020996 265.167999,321.401886 265.167999,319.782776 
	C265.168030,306.823395 265.253876,293.862976 265.102631,280.905365 
	C265.068542,277.985596 265.815857,276.401184 268.741425,275.463348 
	C272.502136,274.257782 276.215240,272.740295 279.710663,270.903778 
	C287.670715,266.721497 291.381866,258.927399 289.969757,250.107880 
	C288.736481,242.405426 282.320007,235.877441 273.793427,234.736404 
	C268.598297,234.041183 263.240479,234.561844 258.072632,234.397797 
	C258.189575,234.259216 258.020630,233.938339 258.020630,233.938339 
z"/>
<path fill="#FE9501" opacity="1.000000" stroke="none" 
	d="
M257.969696,384.579712 
	C293.924438,373.039856 328.745361,359.273621 359.471741,337.127045 
	C370.848022,328.927368 380.693665,318.604095 391.528931,309.099396 
	C395.821075,339.362061 399.869690,369.768433 403.804871,400.189484 
	C406.314911,419.593872 408.652924,439.020508 411.086334,458.434845 
	C411.209778,459.419556 411.506378,460.382538 411.809570,461.762207 
	C407.803864,464.813263 403.818268,467.644836 399.597717,470.067017 
	C387.078278,477.251953 374.526917,484.386871 361.855469,491.298340 
	C357.751862,493.536591 353.238647,495.023926 348.572510,496.801086 
	C346.479523,478.551056 345.149902,460.286804 335.963531,443.778198 
	C322.022736,418.725494 300.780090,404.045563 272.739655,399.041992 
	C268.192230,398.230499 263.493256,398.268433 258.396027,397.873169 
	C257.944489,393.567047 257.961243,389.301544 257.969696,384.579712 
z"/>
<path fill="#F5CC60" opacity="1.000000" stroke="none" 
	d="
M378.010986,160.999817 
	C370.094238,152.939514 362.311218,145.234634 354.725250,137.340424 
	C353.678589,136.251236 352.661194,133.620117 353.232361,132.724014 
	C359.007690,123.663208 365.116730,114.815094 371.815002,104.896027 
	C376.094849,110.511963 380.064728,114.766098 382.913177,119.671425 
	C387.797791,128.083237 392.734100,136.611435 396.220978,145.642044 
	C399.000000,152.839355 393.845703,163.833466 387.320618,167.863586 
	C386.365051,168.453766 384.104553,168.203613 383.258453,167.441879 
	C381.309601,165.687408 379.859497,163.378983 378.010986,160.999817 
z"/>
<path fill="#373A3F" opacity="1.000000" stroke="none" 
	d="
M338.279297,187.043274 
	C345.017975,183.802902 350.985016,184.647156 356.089050,189.424606 
	C360.544342,193.594833 362.032745,198.881897 360.199219,204.867493 
	C358.309357,211.036972 353.994232,214.513123 347.767853,215.633438 
	C341.206787,216.814011 334.363251,212.935028 331.596466,206.633881 
	C328.454651,199.478622 330.712006,192.560120 338.279297,187.043274 
z"/>
<path fill="#F5D781" opacity="1.000000" stroke="none" 
	d="
M132.141296,168.886993 
	C124.709625,168.258881 117.172974,153.522324 119.472733,146.548172 
	C121.332779,140.907455 123.372040,135.160233 126.414078,130.112488 
	C131.370346,121.888435 137.209320,114.196358 143.149811,105.593323 
	C151.692810,114.835320 157.950562,124.516174 164.039062,134.765167 
	C152.359070,145.044037 141.424820,155.943558 132.141296,168.886993 
z"/>
<path fill="#585A65" opacity="1.000000" stroke="none" 
	d="
M185.300171,203.225464 
	C182.637894,211.995987 176.265640,216.675735 168.718124,215.730957 
	C161.232376,214.793915 155.496246,208.803833 155.040268,201.447525 
	C154.570068,193.861618 159.696960,187.184006 167.306442,185.471191 
	C177.475647,183.182205 186.291046,191.655197 185.300171,203.225464 
z"/>
<path fill="#575C67" opacity="1.000000" stroke="none" 
	d="
M258.119080,325.152405 
	C255.905823,325.141663 253.758286,325.007599 250.984909,324.834473 
	C250.984909,321.728271 250.984909,318.618408 250.984894,315.508545 
	C250.984818,303.847351 250.890488,292.184875 251.053482,280.525970 
	C251.092316,277.748322 250.297058,276.338562 247.629639,275.424774 
	C243.710953,274.082306 239.802994,272.559357 236.148743,270.625336 
	C228.589630,266.624603 224.588516,257.993439 226.229355,250.037979 
	C227.941605,241.736252 234.494781,235.646759 243.176392,234.761459 
	C247.800049,234.289963 252.484909,234.418808 257.581390,234.107513 
	C258.020630,233.938339 258.189575,234.259216 258.094269,234.831268 
	C257.987976,265.220581 257.977020,295.037872 257.966034,324.855164 
	C257.966034,324.855164 258.184784,325.029083 258.119080,325.152405 
z"/>
<path fill="#343A41" opacity="1.000000" stroke="none" 
	d="
M258.417755,324.945496 
	C257.977020,295.037872 257.987976,265.220581 257.977356,234.969833 
	C263.240479,234.561844 268.598297,234.041183 273.793427,234.736404 
	C282.320007,235.877441 288.736481,242.405426 289.969757,250.107880 
	C291.381866,258.927399 287.670715,266.721497 279.710663,270.903778 
	C276.215240,272.740295 272.502136,274.257782 268.741425,275.463348 
	C265.815857,276.401184 265.068542,277.985596 265.102631,280.905365 
	C265.253876,293.862976 265.168030,306.823395 265.167999,319.782776 
	C265.167999,321.401886 265.168030,323.020996 265.168030,325.035828 
	C262.764130,325.035828 260.816803,325.035828 258.417755,324.945496 
z"/>
</svg>